<svg width="100" height="100" viewBox="0 0 100 100" fill="none" xmlns="http://www.w3.org/2000/svg">
  <circle cx="50" cy="50" r="50" fill="#8ED1FC"/>
  <path d="M50 20C34.5 20 25 30 25 42.5C25 55 34.5 65 50 65C65.5 65 75 55 75 42.5C75 30 65.5 20 50 20Z" fill="#9E6F50"/>
  <path d="M50 55C42.5 55 37.5 51.5 37.5 46.5C37.5 41.5 42.5 38 50 38C57.5 38 62.5 41.5 62.5 46.5C62.5 51.5 57.5 55 50 55Z" fill="#E9C49F"/>
  <ellipse cx="35" cy="35" rx="7.5" ry="6" fill="#E9C49F"/>
  <ellipse cx="65" cy="35" rx="7.5" ry="6" fill="#E9C49F"/>
  <path d="M50 48C51.6569 48 53 46.6569 53 45C53 43.3431 51.6569 42 50 42C48.3431 42 47 43.3431 47 45C47 46.6569 48.3431 48 50 48Z" fill="#333333"/>
  <ellipse cx="40" cy="39" rx="4" ry="4" fill="white"/>
  <ellipse cx="60" cy="39" rx="4" ry="4" fill="white"/>
  <ellipse cx="40" cy="38" rx="2" ry="2" fill="black"/>
  <ellipse cx="60" cy="38" rx="2" ry="2" fill="black"/>
  <path d="M46 52H54C54 54 52 56 50 56C48 56 46 54 46 52Z" fill="#FF6B6B"/>
  <path d="M49 56L51 56L51 60L49 60L49 56Z" fill="white"/>
</svg>